<?xml version="1.0" encoding="UTF-8" standalone="no"?><!DOCTYPE svg PUBLIC "-//W3C//DTD SVG 1.1//EN" "http://www.w3.org/Graphics/SVG/1.1/DTD/svg11.dtd"><svg width="100%" height="100%" viewBox="0 0 177 38" version="1.1" xmlns="http://www.w3.org/2000/svg" xmlns:xlink="http://www.w3.org/1999/xlink" xml:space="preserve" xmlns:serif="http://www.serif.com/" style="fill-rule:evenodd;clip-rule:evenodd;stroke-linejoin:round;stroke-miterlimit:2;"><g><path d="M37.585,35.274c-0.704,0.853 -2.517,2.648 -6.3,2.648c-3.596,0 -5.6,-1.277 -6.481,-4.158c-0.36,-1.142 -0.36,-3.383 -0.36,-4.736c0,-3.723 0.038,-6.707 0.077,-10.158l0.014,-1.621l-3.071,0l0,-0.911c1.247,-0.482 2.093,-0.984 2.914,-1.609c1.801,-1.397 2.953,-3.143 4.332,-5.596l1.024,0l0,5.227l7.9,0l0,2.889l-7.9,0l0,12.214c0,3.655 0.663,5.735 4.113,5.735c1.612,0 2.674,-0.526 3.344,-0.877l0.394,0.953Zm127.224,-0.662c1.588,0 2.665,-0.252 3.824,-0.94l0,-15.586c-0.383,-0.367 -1.791,-1.556 -4.645,-1.556c-4.529,0 -6.726,3.101 -6.726,9.48c0,2.678 0.801,8.602 7.547,8.602Zm0.81,-32.33c1.404,0 3.238,-0.26 5.467,-0.651c1.268,-0.22 2.12,-0.453 2.529,-0.615l0.406,0.235c-0.201,1.919 -0.203,6.246 -0.203,9.31l0,18.973c0,2.832 0.049,4.584 0.453,5.154c0.362,0.527 1.221,0.881 2.68,0.885l0,1.246c-1.469,0 -3.207,0.187 -5.001,0.48c-1.194,0.196 -2.136,0.389 -2.582,0.635l-0.635,-0.215l0,-1.961c-1.152,0.858 -3.449,2.188 -6.495,2.188c-6.385,0 -10.508,-4.43 -10.508,-11.289c0,-2.287 0.44,-4.45 1.247,-6.274c1.961,-4.218 6.009,-6.636 11.116,-6.636c1.867,0 3.54,0.23 4.54,0.443l0,-4.947c0,-2.901 -0.045,-4.446 -0.467,-5.069c-0.322,-0.476 -0.802,-0.711 -2.547,-0.834l0,-1.058Zm-32.736,12.84c1.582,0.089 3.293,-0.1 5.087,-0.418c1.384,-0.245 2.265,-0.543 2.762,-0.776l0.421,0.207l0,2.02c1.12,-1.051 2.878,-2.158 5.372,-2.158c1.827,0 3.036,0.509 4.054,1.435l0,0.734l-1.953,3.592l-0.956,0c-0.619,-1.086 -1.784,-2.099 -3.874,-2.099c-0.986,0 -1.808,0.238 -2.546,0.734l0,11.731c0,3.06 0.101,4.509 0.501,5.115c0.645,0.982 2.579,1.084 3.687,1.047l0,1.289c-1.599,-0.088 -4.354,-0.227 -6.334,-0.227c-2.249,0 -4.468,0.041 -6.323,0.252l0,-1.178c1.299,-0.064 2.027,-0.422 2.53,-0.988c0.722,-0.812 0.757,-2.719 0.757,-6.678l0,-6.646c0,-2.879 -0.021,-4.121 -0.459,-4.725c-0.383,-0.523 -1.226,-0.83 -2.726,-0.847l0,-1.416Zm-13.873,1.265c-1.385,0 -2.484,0.358 -3.307,1.057c-1.862,1.57 -2.811,4.408 -2.811,8.471c0,1.566 0.295,9.388 6.021,9.388c1.362,0 2.478,-0.351 3.28,-1.051c1.881,-1.566 2.824,-4.421 2.824,-8.486c0,-1.553 -0.293,-9.379 -6.007,-9.379Zm-0.295,21.613c-7.102,0 -11.348,-4.433 -11.348,-11.832c0,-5.763 3.102,-12.466 11.838,-12.466c7.1,0 11.332,4.414 11.332,11.826c0,5.742 -3.098,12.472 -11.822,12.472Zm-26.77,-1.529c0.952,0.016 1.964,-0.347 2.529,-0.986c0.721,-0.805 0.762,-2.77 0.762,-6.729l0,-11.539l-3.036,0l0,-1.306c1.278,-0.495 2.399,-1.075 3.036,-1.573c0.005,-2.048 0.068,-4.716 0.35,-6.168c0.896,-4.791 4.054,-7.24 9.32,-7.24c2.324,0 4.537,0.793 5.867,1.934l0.077,0.49l-2.311,3.199l-0.564,0.01c-0.787,-1.93 -1.967,-3.035 -4.052,-3.035c-0.72,0 -1.725,0.224 -2.345,0.834c-0.995,1.004 -1.174,2.5 -1.174,5.472l0,4.495l5.194,0l0,2.888l-5.194,0l0,12.907c0,3.06 0.111,4.564 0.508,5.166c0.649,0.974 2.694,1.089 3.7,1.052l0,1.233c-1.709,-0.102 -4.364,-0.227 -6.35,-0.227c-2.885,0 -4.763,0.086 -6.317,0.252l0,-1.129Zm-28.911,-21.265c1.181,0.091 2.962,-0.028 4.702,-0.329c1.467,-0.253 2,-0.461 3.098,-1.013l0.459,0.273l0,1.85c1.175,-0.867 3.534,-2.24 6.75,-2.24c4.186,0 6.929,1.957 7.705,5.517c0.22,0.887 0.306,3.014 0.306,4.16l0,6.791c0,3.842 0.153,4.912 0.869,5.598c0.369,0.322 1.221,0.674 2.256,0.674l0,1.088c-1.496,-0.073 -4.153,-0.227 -5.755,-0.227c-2.133,0 -4.532,0.104 -5.825,0.252l0,-1.07c1.153,-0.121 1.942,-0.459 2.346,-0.85c0.674,-0.676 0.788,-2.017 0.887,-4.908c0.028,-0.863 0.052,-2.686 0.052,-4.023c0,-1.735 0,-3.543 -0.199,-5.317c-0.346,-3.012 -1.928,-4.41 -4.933,-4.41c-2.1,0 -3.385,0.478 -4.364,0.973l0,12.22c0,3.842 0.152,4.912 0.888,5.598c0.351,0.322 1.263,0.682 2.242,0.674l0,1.088c-1.927,-0.1 -4.235,-0.227 -5.72,-0.227c-3.094,0 -4.068,0.065 -5.863,0.252l0,-1.109c1.007,-0.01 1.981,-0.371 2.526,-0.991c0.708,-0.8 0.752,-2.785 0.752,-6.744l0,-6.646c0,-2.879 -0.054,-4.1 -0.461,-4.723c-0.319,-0.482 -1.117,-0.869 -2.718,-0.849l0,-1.332Zm-62.862,21.337c0,-2.339 0.017,-4.322 -0.172,-6.722l1.379,0c0.019,1.482 0.431,2.578 1.076,3.306c0.986,1.114 3.269,1.788 5.39,1.788c4.43,0 6.494,-1.678 6.494,-5.282c0,-3.088 -1.907,-4.369 -4.55,-6.152l-0.408,-0.285l-2.78,-1.858c-3.874,-2.558 -5.855,-4.615 -5.855,-8.716c0,-2.006 0.769,-8.555 10.514,-8.555c2.46,0 5.693,0.26 7.644,0.623c-0.02,0.312 -0.053,1.811 -0.053,3.07c0,1.463 0,1.948 0.057,3.737l-1.182,0c-0.037,-1.575 -0.47,-2.588 -1.153,-3.272c-0.943,-0.933 -3.017,-1.369 -5.21,-1.369c-5.165,0 -5.775,2.648 -5.775,4.641c0,2.746 1.405,3.669 4.464,5.701l3.538,2.33c3.004,2.006 5.835,3.896 5.835,8.881c0,8.437 -7.86,9.341 -11.24,9.341c-3.064,0 -5.525,-0.376 -8.013,-1.207Zm52.12,-10.97c-3.091,0.931 -4.155,1.441 -5.103,1.937c-1.355,0.666 -2.033,2.035 -2.033,3.653c0,1.255 0.449,3.371 3.469,3.371c0.997,0 2.429,-0.192 3.667,-1.076l0,-7.885Zm-5.57,12.226c-6.318,0 -6.799,-4.771 -6.799,-6.252c0,-1.726 0.449,-4.779 4.473,-6.252c4.149,-1.525 5.037,-1.701 7.896,-2.595l0,-0.75c0,-1.379 0,-1.711 -0.28,-2.578c-0.544,-1.627 -2.126,-2.668 -4.262,-2.668c-2.139,0 -3.906,1.179 -4.701,2.89l-1.167,-0.687c0.745,-2.633 3.389,-5.248 7.954,-5.248c3.249,0 5.373,0.918 6.665,2.904c0.989,1.574 1.077,3.762 1.077,6.035c0,2.006 -0.062,4.233 -0.098,6.035c-0.033,1.242 -0.062,2.309 -0.062,2.969c0,1.635 0.259,2.906 1.627,2.906c0.564,0 0.675,-0.15 1.16,-0.541l0.746,0.867c-1.231,1.604 -2.582,2.926 -4.856,2.926c-1.843,0 -3.127,-0.883 -3.553,-2.359c-1.036,1.07 -2.892,2.398 -5.82,2.398Z" style="fill:#a90433;fill-rule:nonzero;"/></g></svg>